<?xml version="1.0" standalone="no"?>
<!DOCTYPE svg PUBLIC "-//W3C//DTD SVG 20010904//EN"
 "http://www.w3.org/TR/2001/REC-SVG-20010904/DTD/svg10.dtd">
<svg version="1.0" xmlns="http://www.w3.org/2000/svg"
 width="512.000000pt" height="512.000000pt" viewBox="0 0 512.000000 512.000000"
 preserveAspectRatio="xMidYMid meet">

<g transform="translate(0.000000,512.000000) scale(0.100000,-0.100000)"
fill="#000000" stroke="none">
<path d="M3755 5105 c-38 -8 -113 -35 -165 -61 -152 -75 -286 -223 -340 -375
-23 -66 -661 -2896 -696 -3089 -35 -190 -44 -517 -19 -710 29 -233 77 -423
161 -636 31 -80 49 -109 90 -151 84 -84 196 -104 308 -54 52 23 228 194 330
321 186 232 336 509 424 780 45 138 57 189 327 1385 135 600 249 1097 253
1106 6 14 22 13 154 -16 81 -17 151 -35 155 -38 3 -4 -60 -316 -141 -694 -106
-493 -147 -699 -143 -727 4 -26 16 -50 36 -70 27 -27 39 -31 84 -31 53 0 92
19 116 57 15 25 311 1406 311 1453 0 88 -44 171 -117 225 -41 31 -114 52 -315
95 -43 9 -78 20 -78 25 0 5 19 91 41 192 71 314 65 464 -26 647 -82 163 -227
289 -396 345 -104 35 -247 43 -354 21z m285 -272 c61 -22 117 -62 167 -116
107 -116 136 -255 94 -458 -28 -135 -617 -2744 -647 -2864 -80 -323 -202 -578
-405 -846 -69 -92 -256 -289 -274 -289 -13 0 -60 115 -102 250 -29 92 -67 273
-84 397 -17 135 -6 497 20 633 25 131 656 2936 676 3006 43 149 175 272 325
304 59 12 174 4 230 -17z"/>
<path d="M842 4160 c-79 -53 -210 -168 -298 -262 l-70 -76 -70 55 c-106 86
-159 101 -221 63 -58 -35 -79 -110 -48 -170 8 -16 41 -47 73 -69 63 -43 93
-73 143 -144 39 -56 73 -77 124 -77 52 0 83 22 140 98 73 98 237 263 336 339
61 45 92 77 104 103 30 67 3 139 -61 166 -54 23 -87 17 -152 -26z"/>
<path d="M1411 3952 c-50 -25 -76 -65 -75 -116 1 -48 19 -80 61 -107 26 -18
61 -19 613 -19 552 0 587 1 613 19 42 27 60 59 61 107 1 51 -25 91 -75 116
-31 17 -81 18 -599 18 -518 0 -568 -1 -599 -18z"/>
<path d="M849 2884 c-90 -60 -180 -138 -281 -242 l-96 -98 -33 28 c-74 64
-151 108 -188 108 -96 0 -160 -104 -117 -189 8 -15 34 -40 57 -55 64 -43 124
-102 160 -157 36 -57 72 -79 126 -79 50 0 72 17 144 109 84 106 229 252 321
322 100 77 118 100 118 156 0 56 -23 96 -67 117 -51 24 -85 20 -144 -20z"/>
<path d="M1403 2670 c-43 -26 -68 -66 -68 -110 0 -44 25 -84 68 -110 31 -19
54 -20 512 -20 458 0 481 1 512 20 83 50 83 170 0 220 -31 19 -54 20 -512 20
-458 0 -481 -1 -512 -20z"/>
<path d="M878 1626 c-56 -29 -156 -113 -280 -234 l-127 -125 -43 35 c-122 100
-184 119 -249 75 -40 -27 -59 -60 -59 -105 0 -49 24 -86 79 -121 55 -35 125
-107 159 -162 30 -49 78 -74 131 -66 51 6 66 19 141 117 75 99 200 223 316
315 51 41 98 83 104 94 16 31 12 109 -7 138 -32 48 -112 67 -165 39z"/>
<path d="M1397 1391 c-42 -27 -60 -59 -61 -107 -1 -51 25 -91 75 -116 30 -16
71 -18 392 -18 394 0 405 1 448 61 40 57 20 147 -41 183 -25 14 -74 16 -407
16 -351 0 -380 -1 -406 -19z"/>
</g>
</svg>
