<?xml version="1.0" standalone="no"?>
<!DOCTYPE svg PUBLIC "-//W3C//DTD SVG 20010904//EN"
 "http://www.w3.org/TR/2001/REC-SVG-20010904/DTD/svg10.dtd">
<svg version="1.0" xmlns="http://www.w3.org/2000/svg"
 width="512.000000pt" height="512.000000pt" viewBox="0 0 512.000000 512.000000"
 preserveAspectRatio="xMidYMid meet">

<g transform="translate(0.000000,512.000000) scale(0.100000,-0.100000)"
fill="#000000" stroke="none">
<path d="M2392 5100 c-103 -27 -166 -64 -248 -145 -122 -120 -169 -240 -162
-414 5 -121 27 -193 83 -278 106 -159 249 -241 440 -250 174 -9 298 39 420
162 269 270 193 721 -149 885 -131 63 -250 75 -384 40z m272 -274 c103 -50
160 -143 160 -261 1 -221 -225 -363 -422 -264 -106 52 -162 144 -162 264 0
132 84 245 211 284 56 17 153 6 213 -23z"/>
<path d="M476 4424 c-148 -36 -295 -152 -361 -287 -84 -171 -84 -340 1 -508
153 -305 556 -394 832 -183 77 58 157 168 186 254 28 80 33 250 11 326 -29
102 -81 188 -156 258 -140 133 -330 184 -513 140z m257 -273 c151 -73 211
-250 136 -399 -35 -70 -71 -105 -147 -140 -45 -20 -65 -24 -125 -20 -166 8
-280 127 -281 293 -1 125 70 228 188 275 66 26 164 22 229 -9z"/>
<path d="M4395 4428 c-139 -26 -301 -148 -368 -276 -56 -108 -70 -168 -65
-291 6 -130 25 -191 93 -290 192 -285 599 -324 845 -83 104 103 170 254 170
392 0 138 -66 294 -164 393 -135 135 -321 191 -511 155z m218 -268 c120 -45
192 -149 191 -275 -1 -166 -115 -285 -281 -293 -121 -7 -218 50 -272 160 -120
239 113 501 362 408z"/>
<path d="M2218 3840 c-150 -19 -268 -78 -379 -190 -55 -55 -86 -97 -112 -151
-63 -128 -71 -175 -71 -434 -1 -208 1 -233 18 -261 25 -42 65 -64 116 -64 36
0 48 6 81 39 l39 39 0 188 c0 104 5 218 10 254 20 123 96 230 203 283 81 41
170 50 461 45 240 -4 266 -6 318 -27 76 -29 138 -79 182 -144 56 -86 66 -141
66 -375 0 -190 1 -207 21 -239 52 -84 166 -84 218 0 20 32 21 49 21 246 0 236
-12 322 -59 426 -59 127 -166 237 -297 303 -117 59 -151 64 -474 67 -162 2
-325 0 -362 -5z"/>
<path d="M490 3155 c-164 -37 -306 -149 -380 -300 -57 -114 -60 -149 -60 -716
0 -330 4 -537 11 -575 39 -210 223 -394 433 -433 36 -7 202 -11 418 -11 l358
0 0 -508 c0 -472 1 -510 18 -541 37 -68 52 -71 377 -71 270 0 292 1 322 20 72
44 68 -6 71 784 1 415 -1 738 -7 779 -19 135 -98 243 -221 301 l-65 31 -300 5
-300 5 -5 410 c-5 397 -6 412 -28 466 -86 214 -272 351 -496 364 -52 3 -104
-1 -146 -10z m236 -275 c58 -25 119 -83 146 -138 23 -47 23 -51 28 -517 5
-433 6 -472 23 -497 43 -63 37 -63 432 -68 384 -5 386 -6 421 -57 18 -27 19
-60 22 -685 l3 -658 -136 0 -135 0 0 513 c0 489 -1 513 -20 544 -35 59 -25 58
-525 63 -442 5 -462 6 -506 26 -58 27 -116 85 -143 143 -20 45 -21 60 -24 560
-2 340 1 532 8 565 22 102 118 201 220 224 56 13 132 6 186 -18z"/>
<path d="M4440 3164 c-212 -38 -372 -167 -453 -367 -21 -49 -22 -72 -27 -462
l-5 -410 -300 -5 -300 -5 -65 -31 c-123 -58 -202 -166 -221 -301 -6 -41 -8
-364 -7 -779 3 -790 -1 -740 71 -784 30 -19 52 -20 322 -20 325 0 340 3 377
71 17 31 18 69 18 541 l0 508 358 0 c216 0 382 4 418 11 213 39 397 225 434
439 8 44 10 238 8 605 -3 527 -4 542 -26 606 -56 167 -200 310 -361 360 -65
20 -192 32 -241 23z m196 -288 c61 -28 115 -82 146 -145 l23 -46 0 -545 c0
-534 0 -546 -21 -591 -27 -58 -85 -116 -143 -143 -44 -20 -64 -21 -506 -26
-500 -5 -490 -4 -525 -63 -19 -31 -20 -55 -20 -544 l0 -513 -135 0 -136 0 3
658 c3 625 4 658 22 685 35 51 37 52 421 57 395 5 389 5 432 68 17 25 18 64
23 497 5 517 4 503 69 578 90 102 222 130 347 73z"/>
<path d="M1521 2483 c-66 -33 -90 -116 -51 -180 38 -64 33 -63 520 -63 l440 0
0 -1068 c0 -1015 1 -1069 18 -1101 20 -38 73 -71 112 -71 39 0 92 33 112 71
17 32 18 86 18 1101 l0 1068 440 0 c487 0 482 -1 520 63 40 65 15 148 -53 180
-32 16 -122 17 -1039 17 -915 0 -1006 -2 -1037 -17z"/>
</g>
</svg>
