<?xml version="1.0" standalone="no"?>
<!DOCTYPE svg PUBLIC "-//W3C//DTD SVG 20010904//EN"
 "http://www.w3.org/TR/2001/REC-SVG-20010904/DTD/svg10.dtd">
<svg version="1.0" xmlns="http://www.w3.org/2000/svg"
 width="512.000000pt" height="512.000000pt" viewBox="0 0 512.000000 512.000000"
 preserveAspectRatio="xMidYMid meet">

<g transform="translate(0.000000,512.000000) scale(0.100000,-0.100000)"
fill="#000000" stroke="none">
<path d="M2010 4914 c-179 -14 -320 -43 -465 -94 -635 -223 -1080 -800 -1134
-1467 -21 -266 22 -537 128 -802 l22 -55 -270 -270 c-151 -152 -275 -284 -281
-301 -25 -66 21 -155 88 -168 72 -14 94 1 353 260 l246 244 58 -78 c239 -317
606 -546 1015 -635 92 -19 134 -22 335 -23 186 0 246 4 315 18 294 63 518 165
729 329 l64 50 190 -190 191 -191 -81 -85 c-60 -61 -84 -94 -88 -119 -15 -81
-24 -71 494 -590 267 -269 504 -499 526 -512 55 -32 94 -38 151 -24 45 11 67
30 267 228 135 134 225 231 237 256 25 51 25 108 1 160 -13 27 -184 205 -523
543 l-503 502 -51 0 c-59 0 -75 -10 -172 -104 l-72 -71 -192 192 -191 191 40
49 c54 65 143 202 187 290 210 419 241 896 86 1334 l-37 107 241 241 c133 133
244 241 249 241 4 0 7 -59 7 -131 0 -103 3 -137 16 -159 37 -62 126 -81 185
-39 56 40 59 59 59 380 0 428 30 399 -405 399 -290 0 -312 -1 -342 -20 -91
-55 -78 -183 24 -226 22 -9 73 -14 155 -14 l123 0 -215 -215 c-118 -118 -218
-214 -221 -213 -4 2 -40 48 -82 103 -270 359 -688 606 -1122 664 -94 12 -271
20 -335 15z m225 -264 c876 -82 1471 -907 1273 -1765 -59 -257 -183 -482 -371
-674 -276 -282 -628 -431 -1022 -432 -342 -1 -634 98 -900 306 -348 272 -546
682 -547 1130 0 404 154 763 446 1043 232 222 534 361 848 391 122 12 152 12
273 1z m2453 -4017 l-143 -143 -407 407 -408 408 142 142 143 143 407 -407
408 -408 -142 -142z"/>
<path d="M1761 3669 c-27 -6 -96 -69 -348 -321 -173 -172 -321 -325 -329 -340
-52 -99 35 -207 148 -183 26 6 91 65 298 271 l265 264 300 -300 c231 -231 308
-303 337 -312 78 -23 78 -23 426 325 345 345 352 354 332 428 -16 57 -60 89
-123 89 l-51 0 -271 -270 -270 -270 -306 306 c-325 325 -331 329 -408 313z"/>
</g>
</svg>
